<svg width="431" height="431" fill="none" xmlns="http://www.w3.org/2000/svg"><path fill="#fff" d="M0 0h431v431H0z"/><path d="m216.432 250.259 78.844 20.295H137.589l78.843-20.295Z" fill="url(#a)"/><path d="m84.936 269.204-6.297 25.683 47.898-24.388-41.6-1.295Z" fill="url(#b)"/><path d="m346.103 269.032 6.297 25.683-47.628-24.102 41.331-1.581Z" fill="url(#c)"/><g opacity=".7" filter="url(#d)"><mask id="e" mask-type="alpha" maskUnits="userSpaceOnUse" x="77" y="63" width="277" height="233"><path d="m301.325 265.263 49.043-127.305-129.042-19.814 79.999 147.119Z" fill="#3A3A3A"/><path d="m301.325 265.263 49.043-127.305-129.042-19.814 79.999 147.119ZM131.708 263.795l-51.11-125.837 129.043-19.814-77.933 145.651Z" fill="#3A3A3A"/><path d="m131.708 263.795-51.11-125.837 129.043-19.814-77.933 145.651ZM304.177 269.299 352.4 147.61l1.576 147.144-7.119-26.777-42.68 1.322Z" fill="#3A3A3A"/><path d="M304.177 269.299 352.4 147.61l1.576 147.144-7.119-26.777-42.68 1.322ZM127.661 269.153 78.567 147.235l-1.508 147.838 6.828-26.95 43.774 1.03Z" fill="#3A3A3A"/><path d="M127.661 269.153 78.567 147.235l-1.508 147.838 6.828-26.95 43.774 1.03ZM218.278 64.424l132.598 69.094-132.598-21.846V64.424Z" fill="#3A3A3A"/><path d="m218.278 64.424 132.598 69.094-132.598-21.846V64.424ZM213.197 63.916 80.599 133.01l132.598-21.846V63.916Z" fill="#3A3A3A"/><path d="M213.197 63.916 80.599 133.01l132.598-21.846V63.916ZM215.229 120.176l81.711 149.835-80.426-21.583-80.397 21.299 79.112-149.551Z" fill="#3A3A3A"/></mask><g mask="url(#e)"><path d="M78.567 289.486h274.341V63.916H78.567v225.57Z" fill="url(#f)"/></g></g><path fill-rule="evenodd" clip-rule="evenodd" d="M353.125 296.283a1.525 1.525 0 0 0-.032-2.698l-47.756-24.386a1.523 1.523 0 0 0-1.842.356l-82.81 95.003a1.524 1.524 0 0 0 1.874 2.342l130.566-70.617Zm-132.45 64.627 75.986-89.367a1.524 1.524 0 0 0-1.089-2.509l-.073-.002h-158a1.523 1.523 0 0 0-1.182 2.485l2.864 3.525m75.623 83.024 70.334-82.719H147.567l67.237 82.719Zm-75.375-82.719 69.864 85.951.003.003 4.242 5.22a1.534 1.534 0 0 0 1.253.561 1.52 1.52 0 0 0 1.091-.535l4.793-5.637m-14.308 5.985a1.524 1.524 0 0 0 1.898-2.319l-80.27-95.004a1.524 1.524 0 0 0-1.852-.376l-46.278 23.382-1.986 1.004a1.523 1.523 0 0 0-.046 2.696l1.95 1.071 126.584 69.546Zm-19.592-17.969-61.162-72.387-36.774 18.58 97.936 53.807Zm-49.276-78.37-.241.196Zm105.34 78.196 62.958-72.228 36.307 18.54-99.265 53.688Z" fill="#14222D"/><path fill-rule="evenodd" clip-rule="evenodd" d="m87.358 272.439-4.048 16.508 30.787-15.675-26.74-.833Zm-2.409-4.813a1.578 1.578 0 0 0-1.582 1.202l-6.297 25.683a1.578 1.578 0 0 0 2.25 1.783l47.897-24.388a1.579 1.579 0 0 0-.667-2.985l-41.601-1.295Zm266.702 28.498a1.579 1.579 0 0 0 2.246-1.785l-6.297-25.683a1.58 1.58 0 0 0-1.594-1.202l-41.331 1.581a1.58 1.58 0 0 0-.652 2.986l47.628 24.103Zm-3.989-7.327-4.049-16.512-26.571 1.017 30.62 15.495Zm-131.266-35.278-53.912 13.878h107.824l-53.912-13.878Zm.393-4.789a1.589 1.589 0 0 0-.787 0l-78.843 20.296a1.579 1.579 0 0 0 .393 3.107h157.687a1.578 1.578 0 0 0 .394-3.107l-78.844-20.296Z" fill="#14222D"/><defs><linearGradient id="a" x1="216.432" y1="272.89" x2="216.432" y2="250.259" gradientUnits="userSpaceOnUse"><stop stop-color="#72B3FF"/><stop offset="1" stop-color="#F3A8FF"/></linearGradient><linearGradient id="b" x1="109.453" y1="270.654" x2="82.016" y2="289.961" gradientUnits="userSpaceOnUse"><stop stop-color="#72B3FF"/><stop offset="1" stop-color="#F3A8FF"/></linearGradient><linearGradient id="c" x1="326.3" y1="270.248" x2="349.062" y2="281.873" gradientUnits="userSpaceOnUse"><stop stop-color="#72B3FF"/><stop offset="1" stop-color="#F3A8FF"/></linearGradient><linearGradient id="f" x1="215.969" y1="63.971" x2="215.969" y2="261.31" gradientUnits="userSpaceOnUse"><stop stop-color="#A5FFEF"/><stop offset=".221" stop-color="#82FFBC"/><stop offset=".432" stop-color="#E7FFA2"/><stop offset=".618" stop-color="#FFBEAF"/><stop offset=".823" stop-color="#EAAEFF"/><stop offset="1" stop-color="#CCACFF"/></linearGradient><filter id="d" x="77.567" y="62.916" width="276.341" height="227.569" filterUnits="userSpaceOnUse" color-interpolation-filters="sRGB"><feFlood flood-opacity="0" result="BackgroundImageFix"/><feBlend in="SourceGraphic" in2="BackgroundImageFix" result="shape"/><feGaussianBlur stdDeviation=".5" result="effect1_foregroundBlur"/></filter></defs></svg>